HIERARCHY
ROOT hip
{
  OFFSET 0 0 0
  CHANNELS 6 Xposition Yposition Zposition Zrotation Yrotation Xrotation
  JOINT abdomen
  {
    OFFSET 0 20.6881 -0.73152
    CHANNELS 3 Zrotation Xrotation Yrotation
    JOINT chest
    {
      OFFSET 0 11.7043 -0.48768
      CHANNELS 3 Zrotation Xrotation Yrotation
      JOINT neck
      {
        OFFSET 0 22.1894 -2.19456
        CHANNELS 3 Zrotation Xrotation Yrotation
        JOINT head
        {
          OFFSET -0.24384 7.07133 1.2192
          CHANNELS 3 Zrotation Xrotation Yrotation
          JOINT leftEye
          {
            OFFSET 4.14528 8.04674 8.04672
            CHANNELS 3 Zrotation Xrotation Yrotation
            End Site
            {
              OFFSET 1 0 0
            }
          }
          JOINT rightEye
          {
            OFFSET -3.6576 8.04674 8.04672
            CHANNELS 3 Zrotation Xrotation Yrotation
            End Site
            {
              OFFSET 1 0 0
            }
          }
        }
      }
      JOINT rCollar
      {
        OFFSET -2.68224 19.2634 -4.8768
        CHANNELS 3 Zrotation Xrotation Yrotation
        JOINT rShldr
        {
          OFFSET -8.77824 -1.95073 1.46304
          CHANNELS 3 Zrotation Xrotation Yrotation
          JOINT rForeArm
          {
            OFFSET -28.1742 -1.7115 0.48768
            CHANNELS 3 Zrotation Xrotation Yrotation
            JOINT rHand
            {
              OFFSET -22.5879 0.773209 7.07136
              CHANNELS 3 Zrotation Xrotation Yrotation
              JOINT rThumb1
              {
                OFFSET -1.2192 -0.487915 3.41376
                CHANNELS 3 Zrotation Xrotation Yrotation
                JOINT rThumb2
                {
                  OFFSET -3.37035 -0.52449 3.41376
                  CHANNELS 3 Zrotation Xrotation Yrotation
                  End Site
                  {
                    OFFSET -1.78271 -1.18214 1.43049
                  }
                }
              }
              JOINT rIndex1
              {
                OFFSET -7.75947 0.938293 5.60832
                CHANNELS 3 Zrotation Xrotation Yrotation
                JOINT rIndex2
                {
                  OFFSET -2.54057 -0.884171 1.56538
                  CHANNELS 3 Zrotation Xrotation Yrotation
                  End Site
                  {
                    OFFSET -1.62519 -0.234802 1.16502
                  }
                }
              }
              JOINT rMid1
              {
                OFFSET -8.24714 1.18213 3.41376
                CHANNELS 3 Zrotation Xrotation Yrotation
                JOINT rMid2
                {
                  OFFSET -3.10165 -0.590103 1.0647
                  CHANNELS 3 Zrotation Xrotation Yrotation
                  End Site
                  {
                    OFFSET -2.48547 -0.328903 0.83742
                  }
                }
              }
              JOINT rRing1
              {
                OFFSET -8.82822 0.546677 1.51678
                CHANNELS 3 Zrotation Xrotation Yrotation
                JOINT rRing2
                {
                  OFFSET -2.60934 -0.819778 -0.0198488
                  CHANNELS 3 Zrotation Xrotation Yrotation
                  End Site
                  {
                    OFFSET -2.33842 -0.294052 0.168128
                  }
                }
              }
              JOINT rPinky1
              {
                OFFSET -8.27202 -0.0477905 -0.4584
                CHANNELS 3 Zrotation Xrotation Yrotation
                JOINT rPinky2
                {
                  OFFSET -1.82734 -0.647385 -0.700984
                  CHANNELS 3 Zrotation Xrotation Yrotation
                  End Site
                  {
                    OFFSET -1.69225 -0.51767 -0.607171
                  }
                }
              }
            }
          }
        }
      }
      JOINT lCollar
      {
        OFFSET 2.68224 19.2634 -4.8768
        CHANNELS 3 Zrotation Xrotation Yrotation
        JOINT lShldr
        {
          OFFSET 8.77824 -1.95073 1.46304
          CHANNELS 3 Zrotation Xrotation Yrotation
          JOINT lForeArm
          {
            OFFSET 28.1742 -1.7115 0.48768
            CHANNELS 3 Zrotation Xrotation Yrotation
            JOINT lHand
            {
              OFFSET 22.5879 0.773209 7.07136
              CHANNELS 3 Zrotation Xrotation Yrotation
              JOINT lThumb1
              {
                OFFSET 1.2192 -0.487915 3.41376
                CHANNELS 3 Zrotation Xrotation Yrotation
                JOINT lThumb2
                {
                  OFFSET 3.37035 -0.52449 3.41376
                  CHANNELS 3 Zrotation Xrotation Yrotation
                  End Site
                  {
                    OFFSET 1.78271 -1.18214 1.43049
                  }
                }
              }
              JOINT lIndex1
              {
                OFFSET 7.75947 0.938293 5.60832
                CHANNELS 3 Zrotation Xrotation Yrotation
                JOINT lIndex2
                {
                  OFFSET 2.54057 -0.884171 1.56538
                  CHANNELS 3 Zrotation Xrotation Yrotation
                  End Site
                  {
                    OFFSET 1.62519 -0.234802 1.16502
                  }
                }
              }
              JOINT lMid1
              {
                OFFSET 8.24714 1.18213 3.41376
                CHANNELS 3 Zrotation Xrotation Yrotation
                JOINT lMid2
                {
                  OFFSET 3.10165 -0.590103 1.0647
                  CHANNELS 3 Zrotation Xrotation Yrotation
                  End Site
                  {
                    OFFSET 2.48547 -0.328903 0.83742
                  }
                }
              }
              JOINT lRing1
              {
                OFFSET 8.82822 0.546677 1.51678
                CHANNELS 3 Zrotation Xrotation Yrotation
                JOINT lRing2
                {
                  OFFSET 2.60934 -0.819778 -0.0198488
                  CHANNELS 3 Zrotation Xrotation Yrotation
                  End Site
                  {
                    OFFSET 2.33842 -0.294052 0.168128
                  }
                }
              }
              JOINT lPinky1
              {
                OFFSET 8.27202 -0.0477905 -0.4584
                CHANNELS 3 Zrotation Xrotation Yrotation
                JOINT lPinky2
                {
                  OFFSET 1.82734 -0.647385 -0.700984
                  CHANNELS 3 Zrotation Xrotation Yrotation
                  End Site
                  {
                    OFFSET 1.69225 -0.51767 -0.607171
                  }
                }
              }
            }
          }
        }
      }
    }
  }
  JOINT rButtock
  {
    OFFSET -8.77824 4.35084 1.2192
    CHANNELS 3 Zrotation Xrotation Yrotation
    JOINT rThigh
    {
      OFFSET 0 -1.70687 -2.19456
      CHANNELS 3 Zrotation Xrotation Yrotation
      JOINT rShin
      {
        OFFSET 0 -36.8199 0.73152
        CHANNELS 3 Zrotation Xrotation Yrotation
        JOINT rFoot
        {
          OFFSET 0.73152 -45.1104 -5.12064
          CHANNELS 3 Zrotation Xrotation Yrotation
          End Site
          {
            OFFSET -1.1221 -3.69964 12.103
          }
        }
      }
    }
  }
  JOINT lButtock
  {
    OFFSET 8.77824 4.35084 1.2192
    CHANNELS 3 Zrotation Xrotation Yrotation
    JOINT lThigh
    {
      OFFSET 0 -1.70687 -2.19456
      CHANNELS 3 Zrotation Xrotation Yrotation
      JOINT lShin
      {
        OFFSET 0 -36.8199 0.73152
        CHANNELS 3 Zrotation Xrotation Yrotation
        JOINT lFoot
        {
          OFFSET -0.73152 -45.1104 -5.12064
          CHANNELS 3 Zrotation Xrotation Yrotation
          End Site
          {
            OFFSET 1.1221 -3.69964 12.103
          }
        }
      }
    }
  }
}
MOTION
Frames:	5
Frame Time:	0.00833333
-24.5611 61.61259999999999 -139.1818 3.81956 22.963868 7.745076 -7.414691 17.706482 25.226844 -0.404866 -9.815761 -20.661391 -8.192359 35.356185 -129.516098 46.146975 37.812479 90.959718 -27.547848 2.598034 -10.569858 3.733531 -0.119644 -3.669612 -40.655438 59.859194 42.089958 -49.369923 20.577983 15.740935 173.835618 -34.380528 -142.561032 -10.996692 26.89061 3.266677 7.080935 -6.905727 -5.690701 -1.617741 8.054081 6.097535 -169.662088 -54.825214 117.592586 64.715974 -42.619903 13.435205 -130.997089 45.317595 117.304151 -166.579214 -33.251996 134.309251 -142.73735 -20.016806 -164.031758 1.489566 -10.135031 -11.061342 -147.621375 43.679058 -162.524907 -134.345642 -37.427956 -156.659375 156.391192 -15.376061 -163.790545 64.350344 18.306614 -20.939292 175.275333 9.290733 74.626264 13.320184 -28.234117 6.198214 -27.118548 -24.28624 1.362712 117.68084 9.064685 -105.480126 133.878162 18.372566 -119.1644 5.570617 0.675694 5.967423 -3.49342 -1.047485 -4.320986 14.912337 54.241767 -3.250668 -5.079157 12.881039 -1.816672 84.991631 79.373578 -82.022474 12.719911 -32.213053 20.009164 150.861996 3.563291 143.917851 148.599533 75.669874 21.248243 176.444931 10.339226 -170.648046 -62.321673 -57.842781 -146.846928 -54.016074 -46.622594 -152.206182 -154.557932 78.796914 -16.810857 171.066872 59.83712 16.116328 35.016122 63.295274 12.687065 135.740518 -30.815546 7.589376
-25.025199999999998 62.03530000000001 -140.1817 3.479729 23.15852 7.842542 -5.815273 18.504225 -8.802535 3.841051 -9.120274 13.472801 8.673866 31.967898 128.839328 -41.654946 38.379152 -136.764603 -28.074632 2.565055 -10.233822 2.186199 -0.008444 -0.442538 -141.125207 40.293245 142.942386 68.101874 62.984505 -90.85666 -146.78849 61.84519 -163.062934 -3.559272 3.111685 0.528186 -11.397343 13.715506 -1.495706 10.378012 -2.666382 10.06032 19.051873 -20.220515 -5.76514 -167.408859 -0.621741 105.425079 -163.81093 -9.640686 141.144086 -80.890884 50.466569 71.738575 -146.753689 2.277688 -172.121515 3.371843 3.135269 -4.103661 -16.014313 -39.477775 -8.034264 19.627512 42.105659 -27.757081 139.327292 43.547637 -144.1799 112.668094 15.571265 -90.263201 11.745778 -18.362726 146.532701 164.272815 0.701156 -144.771505 172.657488 -15.514436 -92.956891 -1.746279 -62.832992 -2.393861 -42.794361 -82.505506 6.19135 -158.97178 -74.903648 -92.87331 -7.650496 -13.214103 -2.270149 175.590082 -69.791008 -158.323718 -3.59666 3.946756 0.610672 164.341966 35.527777 -163.928698 -30.488423 75.051698 -10.863214 163.832652 46.645991 136.260451 -128.63098 69.811745 -42.026181 151.940213 6.980172 -119.750902 -72.849609 -37.223096 23.866389 129.862735 19.416999 -44.232915 8.725261 -3.708333 2.584926 -4.023995 -19.735377 175.838021 -19.042452 -76.261853 -102.218731 71.927532 -82.524706 -19.322588
-25.5209 62.4337 -141.1388 3.136576 23.464965 7.996616 -5.525481 19.084923 -11.666878 4.245792 -9.34956 16.42708 3.608121 35.468735 164.412894 -16.177935 55.625229 -177.667642 -28.047138 2.393874 -9.563633 0.542863 0.01389 2.931333 -159.631984 -17.928783 161.340523 -50.864869 -49.239282 -88.939554 -140.106091 -40.53227 -112.937332 1.529165 -15.05841 0.106857 -1.517524 2.566174 -4.561017 -40.696805 26.686194 46.402713 -143.759482 -19.509145 124.268611 19.351398 17.968557 -8.955893 73.138318 -77.331797 46.232926 1.496184 -37.281762 0.027617 -140.644174 -23.493551 -163.140118 2.918799 47.701287 2.935226 -103.627066 77.59275 142.769226 20.695354 -46.85574 -7.889426 152.308648 10.243138 -158.275551 -99.357283 -32.743408 -129.831001 174.043217 20.589274 -35.885502 161.222134 13.05291 -140.678587 -10.781776 -6.610427 4.766972 -1.977158 -1.514461 1.611756 142.412569 1.722313 -128.668156 26.942476 40.246304 -2.670477 18.161479 33.971654 -16.955014 162.167176 -51.113153 -157.834218 -1.659572 1.080218 1.091807 0.536101 -26.623018 1.535833 150.614152 49.788173 150.523207 101.620061 -42.412472 111.704101 -9.864437 -0.841756 -1.796949 -13.404854 -62.50418 129.24206 54.304781 -70.823903 -29.138282 -134.699542 -29.132566 132.892995 -0.593268 -3.585434 -5.653512 8.237659 -19.191804 -2.287015 -5.927763 74.445366 92.091552 165.807112 -46.210674 51.753011
-26.0562 62.816 -142.0509 2.784271 23.856527 8.208498 -4.021173 15.701675 -133.120888 4.213815 5.1512 137.096607 -12.620756 27.639847 -85.996627 50.12542 8.196927 62.235452 -27.436376 2.114693 -8.6474 -1.060837 -0.058765 6.341158 -160.344072 -22.198893 161.58199 -10.533181 -43.56575 -60.094888 -178.835324 -0.837305 -132.458802 -8.649482 14.815629 0.319229 2.05439 -2.137114 -5.245083 -14.311992 22.641885 19.913334 -163.925065 -58.888784 125.55191 31.695953 -1.303909 -3.975431 6.207615 -17.545146 1.190069 -167.339667 19.487488 151.846848 -1.325211 -9.004248 -9.3679 -149.746044 -39.495224 -172.218946 -144.843442 -3.83705 -151.271762 -88.67175 57.33142 117.382161 159.100667 -50.182399 -170.439998 -118.39824 50.355286 161.464139 34.393254 14.045123 -128.563982 -2.309892 -62.848332 5.223082 32.977389 33.782383 -12.854392 123.740931 -22.381653 -89.663057 8.18976 24.75363 3.423431 167.294495 -23.156072 -99.818041 -4.695145 -11.522284 -1.272756 0.255851 -7.557406 11.341984 0.768066 13.681937 -3.350664 165.965119 12.728142 -171.974157 133.399421 -15.037591 133.559874 10.694787 -47.952376 10.651643 14.036418 2.874348 18.087527 -59.490682 -48.832315 51.242239 74.208569 -20.576232 -48.099934 168.756268 -75.595054 65.069604 -118.698577 74.529249 -43.653135 153.497475 49.505775 170.722129 57.174895 -66.218148 -35.892906 -68.030801 34.173887 -24.894416
-26.646199999999997 63.19709999999999 -142.9197 2.415318 24.299494 8.475872 -5.502347 20.227791 -2.901103 3.126223 -11.036359 8.029799 -10.342564 19.269232 -39.108816 35.721877 -23.675956 26.415526 -26.251587 1.76828 -7.572824 -2.501169 -0.210885 9.637412 -156.44865 -3.140722 157.75354 -124.175269 -26.78507 -129.399313 145.853633 74.763316 131.662308 179.473617 -2.785018 143.990772 7.3799 -9.272857 -5.75153 -127.208756 -48.519583 131.901728 -8.235336 26.131352 6.599126 -174.179067 -2.324459 110.429463 -157.763914 -0.227608 138.358611 23.813884 -20.346155 11.543334 -36.004483 74.830052 53.15843 17.882129 53.93794 -2.734631 -145.147777 34.02676 -166.337263 -86.190464 50.137439 142.74936 2.564234 13.605925 -3.682585 96.728989 -26.85634 173.263713 -5.653507 -4.610469 142.255303 165.220323 12.946666 -141.756152 21.652116 28.39235 -5.611357 -14.645164 -15.295449 -12.033503 154.049578 -59.173894 -144.915862 -24.593684 -34.964149 20.013573 4.627301 9.288581 -4.258717 -9.861207 -60.782694 15.274588 148.035786 -4.630657 177.089568 12.17849 -71.166487 40.888354 -5.778422 25.841907 -10.283853 123.605593 -20.773861 111.263394 -14.314518 -0.82826 -3.318113 -0.032745 -58.119177 0.011981 53.208894 71.961244 -127.93292 125.842538 19.691343 -35.052431 -18.015594 0.629897 -21.327711 31.540283 -19.716022 106.724026 83.086862 4.477235 82.766037 122.257567 46.406661 146.853276
